<svg height="512" viewBox="0 0 128 128" width="512" xmlns="http://www.w3.org/2000/svg"><g id="Circle_Grid" data-name="Circle Grid"><circle cx="64" cy="64" fill="#ef5261" r="64"/></g><g id="icon"><path d="m33.624 95.38c21.674 6.907 50.211-.066 66.394-5.313a10.135 10.135 0 0 0 5.158-15.431l-20.832-29.936a6.04 6.04 0 0 1 -4.14 5.712 5.71 5.71 0 0 1 -4.538 2.679 34.05 34.05 0 0 1 8.546 22.139v.022a19.649 19.649 0 0 1 -.066 2.192c-.421-.177-.863-.332-1.284-.487-8.7-2.989-17.158-1.284-20.279-.465-.819.221-1.262.376-1.262.376s-.177-.221-.531-.642c-2.171-2.586-11.16-12.35-24.49-14.32-7.7-1.151-15 2.094-15.276 10.162-.354 10.332 2.77 20.19 12.6 23.312z" fill="#fed19a"/><path d="m88.75 43.589a13.87 13.87 0 0 1 -18.7 12.991h-.021a13.867 13.867 0 0 1 4.863-26.85 12.115 12.115 0 0 1 1.4.074h.021a13.847 13.847 0 0 1 12.437 13.785z" fill="#414451"/><path d="m85.306 42.795a13.858 13.858 0 0 1 -13.859 13.859 12.374 12.374 0 0 1 -1.4-.074h-.021a13.867 13.867 0 0 1 4.863-26.85 12.115 12.115 0 0 1 1.4.074h.021a13.876 13.876 0 0 1 8.996 12.991z" fill="#575b6d"/><circle cx="74.893" cy="43.588" fill="#eeefee" r="6.625"/><g fill="#f4bb87"><path d="m54.9 84.377a6.259 6.259 0 0 0 3.652-1.377 11.244 11.244 0 0 0 2.568-2.94 13.609 13.609 0 0 0 1.461-3.52v-.04c-.819.221-1.262.376-1.262.376s-.177-.221-.531-.642c-.531.93-1.018 1.815-1.572 2.7a21.558 21.558 0 0 1 -4.316 5.443z"/><path d="m82.86 76.96c.155.266.31.531.465.819a25.735 25.735 0 0 1 1.262 2.458c.421.841.708 1.749 1.173 2.767a5.741 5.741 0 0 0 .509-3.21 8.126 8.126 0 0 0 -1.018-3.1 9.518 9.518 0 0 0 -1.041-1.439 19.649 19.649 0 0 1 -.066 2.192c-.42-.177-.863-.332-1.284-.487z"/></g></g></svg>